/* XPM */
static char * exit_xpm[] = {
"64 64 17 1",
" 	c #FFFFFF",
".	c #F8F8F8",
"+	c #F0F0F0",
"@	c #E9E9E9",
"#	c #E1E1E1",
"$	c #D8D8D8",
"%	c #C6C6C6",
"&	c #B1B1B1",
"*	c #A5A5A5",
"=	c #989898",
"-	c #898989",
";	c #BCBCBC",
">	c #787878",
",	c #474747",
"'	c #000000",
")	c #CFCFCF",
"!	c #636363",
"                                                                ",
"                                                                ",
"                                                                ",
"                                                                ",
"                                                                ",
"                                                                ",
"                                                                ",
"                                                                ",
"                           .+@####@+.                           ",
"                       .@$%&*=----=*&%$@.                       ",
"                     +$;=>,'''''''''',>=;$+                     ",
"                   +)*>,'''''''''''''''',>*)+                   ",
"                 .#&!''''''''''''''''''''''!&#.                 ",
"                +%-,'''''''''''''''''''''''',-%+                ",
"               @&!''''''''''''''''''''''''''''!&@               ",
"              @*,'''''''''''''''''''''''''''''',*@              ",
"             @*,'''''''''''''''''''''''''''''''',*@             ",
"            @*,'''''''''''''''''''''''''''''''''',*@            ",
"           +&,'''''''''''''''''''''''''''''''''''',&+           ",
"          .%!''''''''''''''''''''''''''''''''''''''!%.          ",
"          #-''''''''''''''''''''''''''''''''''''''''-#          ",
"         +&,'''''''''''''''''''''''''''''''''''''''',&+         ",
"         )!''''''''''''''''''''''''''''''''''''''''''!)         ",
"        +*''''''''''''''''''''''''''''''''''''''''''''*+        ",
"        $>''''''''''''''''''''''''''''''''''''''''''''>$        ",
"       .;,'''''''''''''''''''''''''''''''''''''''''''',;.       ",
"       @=''''''''''''''''''''''''''''''''''''''''''''''=@       ",
"       $>''''''''''''''''''''''''''''''''''''''''''''''>$       ",
"       %,'''''''''''''''''''''''''''''''''''''''''''''',%       ",
"      .&''''''''''''''''''''''''''''''''''''''''''''''''&.      ",
"      +*''''''''''''''''''''''''''''''''''''''''''''''''*+      ",
"      @=''''''''''''''''''''''''''''''''''''''''''''''''=@      ",
"      #-''''''''''''''''''''''''''''''''''''''''''''''''-#      ",
"      #-''''''''''''''''''''''''''''''''''''''''''''''''-#      ",
"      #-''''''''''''''''''''''''''''''''''''''''''''''''-#      ",
"      #-''''''''''''''''''''''''''''''''''''''''''''''''-#      ",
"      @=''''''''''''''''''''''''''''''''''''''''''''''''=@      ",
"      +*''''''''''''''''''''''''''''''''''''''''''''''''*+      ",
"      .&''''''''''''''''''''''''''''''''''''''''''''''''&.      ",
"       %,'''''''''''''''''''''''''''''''''''''''''''''',%       ",
"       $>''''''''''''''''''''''''''''''''''''''''''''''>$       ",
"       @=''''''''''''''''''''''''''''''''''''''''''''''=@       ",
"       .;,'''''''''''''''''''''''''''''''''''''''''''',;.       ",
"        $>''''''''''''''''''''''''''''''''''''''''''''>$        ",
"        +*''''''''''''''''''''''''''''''''''''''''''''*+        ",
"         )!''''''''''''''''''''''''''''''''''''''''''!)         ",
"         +&,'''''''''''''''''''''''''''''''''''''''',&+         ",
"          #-''''''''''''''''''''''''''''''''''''''''-#          ",
"          .%!''''''''''''''''''''''''''''''''''''''!%.          ",
"           +&,'''''''''''''''''''''''''''''''''''',&+           ",
"            @*,'''''''''''''''''''''''''''''''''',*@            ",
"             @*,'''''''''''''''''''''''''''''''',*@             ",
"              @*,'''''''''''''''''''''''''''''',*@              ",
"               @&!''''''''''''''''''''''''''''!&@               ",
"                +%-,'''''''''''''''''''''''',-%+                ",
"                 .#&!''''''''''''''''''''''!&#.                 ",
"                   +)*>,'''''''''''''''',>*)+                   ",
"                     +$;=>,'''''''''',>=;$+                     ",
"                       .@$%&*=----=*&%$@.                       ",
"                           .+@####@+.                           ",
"                                                                ",
"                                                                ",
"                                                                ",
"                                                                "};
