/* XPM */
static char * plant_xpm[] = {
"64 64 91 1",
" 	c #FFFFFF",
".	c #FBFBFB",
"+	c #EDEDED",
"@	c #F1F1F1",
"#	c #C8C8C8",
"$	c #EBEBEB",
"%	c #ABABAB",
"&	c #E7E7E7",
"*	c #979797",
"=	c #F3F3F3",
"-	c #AEAEAE",
";	c #757575",
">	c #CCCCCC",
",	c #EEEEEE",
"'	c #9A9A9A",
")	c #5C5C5C",
"!	c #4B4B4B",
"~	c #707070",
"{	c #BABABA",
"]	c #A9A9A9",
"^	c #424242",
"/	c #303030",
"(	c #2A2A2A",
"_	c #353535",
":	c #606060",
"<	c #E4E4E4",
"[	c #CFCFCF",
"}	c #C3C3C3",
"|	c #616161",
"1	c #393939",
"2	c #191919",
"3	c #0B0B0B",
"4	c #212121",
"5	c #474747",
"6	c #787878",
"7	c #BCBCBC",
"8	c #D6D6D6",
"9	c #161616",
"0	c #414141",
"a	c #2F2F2F",
"b	c #F9F9F9",
"c	c #B1B1B1",
"d	c #8B8B8B",
"e	c #E2E2E2",
"f	c #737373",
"g	c #DCDCDC",
"h	c #B6B6B6",
"i	c #4E4E4E",
"j	c #8F8F8F",
"k	c #9E9E9E",
"l	c #484848",
"m	c #252525",
"n	c #777777",
"o	c #E6E6E6",
"p	c #383838",
"q	c #141414",
"r	c #0C0C0C",
"s	c #0F0F0F",
"t	c #1D1D1D",
"u	c #898989",
"v	c #C4C4C4",
"w	c #A1A1A1",
"x	c #515151",
"y	c #222222",
"z	c #070707",
"A	c #010101",
"B	c #020202",
"C	c #AAAAAA",
"D	c #D8D8D8",
"E	c #131313",
"F	c #F7F7F7",
"G	c #DADADA",
"H	c #B5B5B5",
"I	c #E9E9E9",
"J	c #8D8D8D",
"K	c #FEFDF2",
"L	c #747474",
"M	c #DEDEDE",
"N	c #464646",
"O	c #444444",
"P	c #3B3B3B",
"Q	c #6D6D6D",
"R	c #717171",
"S	c #3E3E3E",
"T	c #9D9D9D",
"U	c #848484",
"V	c #6A6A6A",
"W	c #4F4F4F",
"X	c #333333",
"Y	c #1F1F1F",
"Z	c #5A5A5A",
"                                                                ",
"                                                                ",
"                                                                ",
"                                                                ",
"                                                                ",
"                                                                ",
"                                                                ",
"                                                                ",
"                                                                ",
"              .+                                                ",
"              @#                                                ",
"              $%                                                ",
"              &*                                                ",
"             =-;>                                               ",
"            ,')!~{                                              ",
"           =]^/(_:>                                             ",
"       .<[}%|1234567#8+                                         ",
"       .<[}%|1934567#8+                                         ",
"           =]0a(_:>                                             ",
"            ,')!~{                                              ",
"             =-;>                                               ",
"              &*                                                ",
"              $%                           <b                   ",
"              @#                           c$                   ",
"              .+                           de                   ",
"                                           fg                   ",
"                                          hij+                  ",
"                                         klm_no                 ",
"                                        hpqrstu+                ",
"                                    <vcwxyzAB91dC{Db            ",
"                                    <vcwxyzAB91dC{Db            ",
"                                        hpErstu+                ",
"                                         klm_no                 ",
"                                          hij+                  ",
"                                           fg                   ",
"                                           de                   ",
"                                           c$                   ",
"                                           <b                   ",
"                                                                ",
"                                                                ",
"                                                                ",
"                    FG                                          ",
"                    +H                                          ",
"                    Iw                                          ",
"                    <J                           K              ",
"                   oL)*                                         ",
"                  MNOPNQ                                        ",
"                 oRSt2yx*                                       ",
"             F#TUVWXqAYSZLJ%G                                   ",
"                 oRS22yx*                                       ",
"                  MNOPNQ                                        ",
"                   oL)*                                         ",
"                    <J                                          ",
"                    Iw                                          ",
"                    +H                                          ",
"                    FG                                          ",
"                                                                ",
"                                                                ",
"                                                                ",
"                                                                ",
"                                                                ",
"                                                                ",
"                                                                ",
"                                                                "};
