/* XPM */
static char * star_xpm[] = {
"64 64 17 1",
" 	c #FFFFFF",
".	c #FDF1F1",
"+	c #FBE2E2",
"@	c #FADADA",
"#	c #FEF8F8",
"$	c #F6AAAA",
"%	c #F9D1D1",
"&	c #F8BFBF",
"*	c #F38282",
"=	c #F7B5B5",
"-	c #FCEAEA",
";	c #F9C9C9",
">	c #F49191",
",	c #F15A5A",
"'	c #F03A3A",
")	c #F59E9E",
"!	c #F27070",
"                                                                ",
"                                                                ",
"                                                                ",
"                                                                ",
"                                                                ",
"                                                                ",
"                                                                ",
"                                                                ",
"                                                                ",
"                                            ..                  ",
"                +@#                        +$%                  ",
"                &*=+                     -;>*@                  ",
"                ;,'>;-                  +),'=#                  ",
"                -)'',)@#              +&>'''&                   ",
"                 &''''*=+           #@>'''''&                   ",
"                 &''''''>%.        +=*'''''!%                   ",
"                 %!''''''!$+     .%>'''''''$.                   ",
"                 .$''''''''>;-  +$!''''''''&                    ",
"                  &''''''''',)%%>''''''''''&                    ",
"                  &'''''''''''!!''''''''''!%                    ",
"                  %!''''''''''''''''''''''$.                    ",
"                  .$''''''''''''''''''''''&                     ",
"                   &''''''''''''''''''''''&                     ",
"                   &'''''''''''''''''''''!%                     ",
"                   @*''''''''''''''''''''$.                     ",
"                   #=''''''''''''''''''''&                      ",
"                   #=''''''''''''''''''''$.                     ",
"                  .;*''''''''''''''''''''!=-                    ",
"                 -=!'''''''''''''''''''''',)+                   ",
"                +),'''''''''''''''''''''''''>+                  ",
"               +>''''''''''''''''''''''''''''>@#                ",
"              +>''''''''''''''''''''''''''''''*&-               ",
"            #@>'''''''''''''''''''''''''''''''',)+              ",
"           .;*'''''''''''''''''''''''''''''''''''>+             ",
"          +$!'''''''''''''''''''''''''''''''''''''>+            ",
"         +>''''''''''''''''''''''''''''''''''''''''>%.          ",
"        +>''''''''''''''''''''''''''''''''''''''''''!=-         ",
"      #-&*,''''''''''''''''''''''''''''''''''',*>)=&&;-         ",
"      #-+@;&&&&&&&&&&&&=*''''''''''''>&&&&&&&&;@+-#             ",
"                       #%*'''''''''',;                          ",
"                        #='''''''''')-                          ",
"                         ;,'''''''''&                           ",
"                         -)''''''''*@                           ",
"                          &''''''''=#                           ",
"                          @*'''''',;                            ",
"                          #='''''')-                            ",
"                           ;,'''''&                             ",
"                           -)''''*@                             ",
"                            &''''=#                             ",
"                            +>'''&                              ",
"                             &''>+                              ",
"                             %!'&                               ",
"                             .$!%                               ",
"                              &$.                               ",
"                              ++                                ",
"                                                                ",
"                                                                ",
"                                                                ",
"                                                                ",
"                                                                ",
"                                                                ",
"                                                                ",
"                                                                ",
"                                                                "};
