/* XPM */
static char * wall_xpm[] = {
"64 64 227 2",
"  	c #A91717",
". 	c #DF9B9B",
"+ 	c #D56767",
"@ 	c #E09F9F",
"# 	c #F1D8D8",
"$ 	c #EED0D0",
"% 	c #EECFCF",
"& 	c #EDC8C8",
"* 	c #D76E6E",
"= 	c #DA8181",
"- 	c #EBC4C4",
"; 	c #EFD1D1",
"> 	c #DF9696",
", 	c #E4ACAC",
"' 	c #DFBCBC",
") 	c #DD9393",
"! 	c #D87272",
"~ 	c #E6B4B4",
"{ 	c #E8CBCB",
"] 	c #E09E9E",
"^ 	c #DC8A8A",
"/ 	c #E8BBBB",
"( 	c #DF9999",
"_ 	c #EAC2C2",
": 	c #E4AEAE",
"< 	c #DB8787",
"[ 	c #E3ABAB",
"} 	c #F1DADA",
"| 	c #F2DADA",
"1 	c #EDCBCB",
"2 	c #EAC0C0",
"3 	c #EFD2D2",
"4 	c #EFD8D8",
"5 	c #EBC5C5",
"6 	c #DC8B8B",
"7 	c #E09D9D",
"8 	c #EDD1D1",
"9 	c #EAC4C4",
"0 	c #DD9090",
"a 	c #D97A7A",
"b 	c #D87676",
"c 	c #F1D9D9",
"d 	c #F0D4D4",
"e 	c #F1D7D7",
"f 	c #E19F9F",
"g 	c #E8BABA",
"h 	c #DB8A8A",
"i 	c #DB8484",
"j 	c #E8B8B8",
"k 	c #DA7D7D",
"l 	c #D87777",
"m 	c #CC9898",
"n 	c #F2DCDC",
"o 	c #F2DBDB",
"p 	c #F3DCDC",
"q 	c #D56666",
"r 	c #D04040",
"s 	c #E2A9A9",
"t 	c #E6B6B6",
"u 	c #EAC5C5",
"v 	c #DE9797",
"w 	c #D03C3C",
"x 	c #D56565",
"y 	c #DB8585",
"z 	c #E1A0A0",
"A 	c #F0D6D6",
"B 	c #E4AAAA",
"C 	c #E1A2A2",
"D 	c #F1D6D6",
"E 	c #E7B7B7",
"F 	c #EDCCCC",
"G 	c #D35353",
"H 	c #D04242",
"I 	c #E3A8A8",
"J 	c #DB8686",
"K 	c #EDCACA",
"L 	c #D77070",
"M 	c #E8BDBD",
"N 	c #E4AFAF",
"O 	c #E2A3A3",
"P 	c #DF9A9A",
"Q 	c #DD9191",
"R 	c #DD8F8F",
"S 	c #E5AEAE",
"T 	c #E4ABAB",
"U 	c #D46161",
"V 	c #DC8686",
"W 	c #D03939",
"X 	c #DEBCBC",
"Y 	c #DB8383",
"Z 	c #F0D3D3",
"` 	c #EBC7C7",
" .	c #E5AFAF",
"..	c #D97C7C",
"+.	c #D66E6E",
"@.	c #D56868",
"#.	c #DF9898",
"$.	c #DC8C8C",
"%.	c #E9BDBD",
"&.	c #D24B4B",
"*.	c #D14848",
"=.	c #E2A5A5",
"-.	c #D45E5E",
";.	c #E7B8B8",
">.	c #EDC9C9",
",.	c #EBC8C8",
"'.	c #E9C1C1",
").	c #E3AAAA",
"!.	c #E5B3B3",
"~.	c #E09C9C",
"{.	c #F3DDDD",
"].	c #CB9898",
"^.	c #D97B7B",
"/.	c #D14545",
"(.	c #D56464",
"_.	c #D56363",
":.	c #EFD3D3",
"<.	c #DD8C8C",
"[.	c #D87575",
"}.	c #D35858",
"|.	c #E1A1A1",
"1.	c #DE9191",
"2.	c #F0D7D7",
"3.	c #D03838",
"4.	c #D03E3E",
"5.	c #D87979",
"6.	c #E19D9D",
"7.	c #E6B3B3",
"8.	c #DA7E7E",
"9.	c #E4ADAD",
"0.	c #EAC3C3",
"a.	c #ECCACA",
"b.	c #ECC9C9",
"c.	c #DD8E8E",
"d.	c #ECC8C8",
"e.	c #DC8989",
"f.	c #F0D5D5",
"g.	c #DE9595",
"h.	c #D03D3D",
"i.	c #D03B3B",
"j.	c #E6B5B5",
"k.	c #DE9696",
"l.	c #E5B0B0",
"m.	c #D66B6B",
"n.	c #DA8080",
"o.	c #EECECE",
"p.	c #D24E4E",
"q.	c #D24C4C",
"r.	c #E8BCBC",
"s.	c #E7B5B5",
"t.	c #D35252",
"u.	c #D66A6A",
"v.	c #ECC6C6",
"w.	c #DA8484",
"x.	c #EAC1C1",
"y.	c #E6B1B1",
"z.	c #DE9898",
"A.	c #DC8787",
"B.	c #D14444",
"C.	c #D35A5A",
"D.	c #E09B9B",
"E.	c #D87A7A",
"F.	c #D66C6C",
"G.	c #D77171",
"H.	c #E9BCBC",
"I.	c #DA8383",
"J.	c #E09999",
"K.	c #F3DEDE",
"L.	c #ECC7C7",
"M.	c #DA8282",
"N.	c #E9BEBE",
"O.	c #E1A5A5",
"P.	c #D03F3F",
"Q.	c #D77272",
"R.	c #D35555",
"S.	c #E7BABA",
"T.	c #D24A4A",
"U.	c #D45F5F",
"V.	c #D04343",
"W.	c #D14242",
"X.	c #E1A6A6",
"Y.	c #D87474",
"Z.	c #D04141",
"`.	c #EBC6C6",
" +	c #E2A8A8",
".+	c #E6B7B7",
"++	c #DD8D8D",
"@+	c #D66969",
"#+	c #D45C5C",
"$+	c #D56161",
"%+	c #DA7F7F",
"&+	c #EFD4D4",
"*+	c #D24D4D",
"=+	c #D45858",
"-+	c #DC8D8D",
";+	c #DE9494",
">+	c #D56060",
",+	c #DE9393",
"'+	c #DC8888",
")+	c #DF9797",
"!+	c #E1A3A3",
"~+	c #D45D5D",
"{+	c #D14747",
"]+	c #D25050",
"^+	c #D14646",
"/+	c #D76F6F",
"(+	c #D03A3A",
"_+	c #D45A5A",
":+	c #DF9595",
"<+	c #D35656",
"[+	c #D25353",
"}+	c #D25151",
"|+	c #D35959",
"1+	c #E5B2B2",
"2+	c #E7B9B9",
"3+	c #DB8989",
"4+	c #D14343",
"5+	c #E5B5B5",
"6+	c #D87878",
"7+	c #D35757",
"8+	c #E7CBCB",
"9+	c #DE9292",
"0+	c #E5B1B1",
"a+	c #E2A4A4",
"b+	c #D24F4F",
"c+	c #D5ABAB",
"d+	c #E3A7A7",
"            . + @ #         $ %                                                                                                 ",
"            & * = -       ; > , '                                                                                               ",
"              ) ! ~ {   { ] ^ /                                                                                                 ",
"              & ( _     : < [ }     | 1 2 3                                                                                     ",
"                4     5 6 7 8     9 0 a b @ c                                   d e                                             ",
"                      / f 1       g h i 0 j                                   | k l d                                           ",
"        #       m n   o o           # p                                       | q r 7                                           ",
"      : s o     t ] %                             u ~ {                         v w x d                                         ",
"    _ y z A     B * C D                           z b E {                       F G H I                                         ",
"  ' ( J g       K L i 5   | M N O P Q R S p       T U P d                         V W * 4       X 7 7                           ",
"  _ Y z Z         7 6 ` o  ...+.+ @.@.L #.d       1 * $.;                         %.&.*.E       =.-.Y                           ",
"  ;.( >.          p ,.    '.z P @ ).!.%.d           ~.7 {.                        ].^./.v     2 (._.%.                          ",
"  | :.                                              p A                             5 <.E   3 [.}.|.    | N 1.Y I               ",
"              m 2.                                                                          7 }.y X     1.*.3.4.5.p             ",
"              9 6.7.:.                                                                      =.^ ;       I 5.8.7 F               ",
"              d 7 $.. _                                                     5 9.].    0.7.X                             X e     ",
"                | S $.Q : D     a.b.                                      F L * ;   ].Y }.9.                            R L 5   ",
"                    g c.< 7 d.$ e.Q f.                                    g.G Y       R h.* p     ].4 e ; ` 0.3       ].5.i.1.  ",
"                  D j.f k.< f l.m.n.o.                                  ` (.-.g       2 p.q.r.  s.^.@.-.t.*.*.l 3       g.3.u.X ",
"            m v.O w.[.k.x.j.y.N + h $                                   z.G A.          R m.%.p Y H W h.B.q.}.<.X       2 &.C.| ",
"          d D.E.F.G.$.g       H.u.g.:.                                  f k F           ].;     5 =.9.g ` 3 e           X <.y   ",
"          H.I.I.J.r.K.        L.M.[ {.                                  4 |                                               ].4   ",
"          p a.e               m N.c                                                 0.I 3                                       ",
"                                                                                    f U [.E                                     ",
"                          { > O.                                                    e ^ -.U z.e                                 ",
"                          f.    #                                                     ].T u.}.a %.  X g.<.4                     ",
"                            = P.(                                                         7.Q.R.x I E G G 3                     ",
"                            S.T.U.{.                                                  ; I l [.V @.Q.<.V.G e                     ",
"                            { Q.W.X.          E x.                                2 ^ C.h.4.Y.F 5 T g.r U.4                     ",
"                              , B.m.        E L f                               I G W Z.U z.d       |.Z.* ].                    ",
"                              c @.p.>.    o.l m.`.                              f (.a N p           7._.g.                      ",
"                                , [.-   {.^ _. +      >.E : %                     |                   2 4                       ",
"      .+T                         %     )._.++      X.@+#+$+|.                                                                  ",
"      6 x Z                             D.%+&+      ( (.m.i N.                                                                  ",
"      #.*+T             f.>.                        # L.f.                                S.] F                                 ",
"      %.=+-+          # ^ 0       ;+%+{.                             +D.                  ( >+,+                                ",
"      4 '+)+          !+~+;+      i {+O.              {.{.        ' l ]+>.                 .#+q `.                              ",
"        Z ;         % L q >.      : ^+/+    >.|.( ++i 5.^.,         y (+D.                c ^.R.>                               ",
"                    |._+:+        o [.m.{.  ++<+[+}+[+[+~+(          .B.5.                  O.|+/+%         % r.{.              ",
"                    ;+b f.          >.1+    O.%+y 0 ]  +~ f.        # Y.i                   o.Q.<+O.      &+,+< F               ",
"                    - x.                                              >.L.                    D._+y       f Q.:+'               ",
"                                &+L.                                                          o.c.D.{   1+b i o.    # 2 ~ N.    ",
"                                X...).{                                                         {.o   o.i b 2+    >.y _.U.%+>.  ",
"                                r.l /+0 F                                                             x.++X.      2 %+@.l f o   ",
"                                  `.++m.%+ .       .E                                   % {       3 { { %           % o.{.      ",
"                                    c D.m./+> f.F $+l                                  .++N.    S.3+).                          ",
"                                  ' - ( i %+/+> , ^+@+                              L.%+b x.    1+_.L o.            ' {.        ",
"                              f.: i (._+0 % O.D.] 4+5.                              D.F.;+      3 Y.|+X.  { ~ ] ;+3+%+^.,+o.    ",
"                            r.[.|+[+U.y -     c f W.^                             o...b x.        O.L f ' E L R.[+[+[+|+5.x.    ",
"                            D.#+F.:+x.          ).|+X.                            `.y !+          { r.o.  L.0 M.6 > !+: -       ",
"                            >.~ &+              &+|.#                             ' - {.                                        ",
"                                                                                                o.o                             ",
"                                                                                              L.0 ,+-                           ",
"                                                                                              # ( Q.%+: {.                      ",
"          T T                                                                                   o  +^.Y.:+>.    F ~ f.          ",
"d.      5+6+C                                                                                       2+= F.M.~ 3 ,+F.~           ",
" .    K n.-+{.                                                                                    &+: c.M.b M.|.Q.7+,           ",
"Z   | 6 n.K     8+g f 9+5+                                                                    x.( Y.>+[.: 2+f D.m._+~           ",
"     .^.0+      a+~+b+_+g.                                                                # > q <+|+Q.!+{     S.m._.2           ",
"    x..+        1 T ;.Z                                                                   x.5.(.= , f.        o.%+..%           ",
"x.                                {.                                                      { N.-                 S.r.            ",
"/+%.                            z Y ;                                                                                           ",
"-.e.        c+{.e % 1 n         #.=+d+                                                                                          ",
"5.F.1   x.-+^.+.x _+_+6 n       ;.~+'+                                                                                          "};
